HIERARCHY
ROOT Hips
{
  OFFSET -32.5998 29.0326 120.673
  CHANNELS 6 Xposition Yposition Zposition Zrotation Xrotation Yrotation
  JOINT LeftUpLeg
  {
    OFFSET 8.64259 1.95398 -2.38835
    CHANNELS 3 Zrotation Xrotation Yrotation
    JOINT LeftLeg
    {
      OFFSET 43.7702 0 0
      CHANNELS 3 Zrotation Xrotation Yrotation
      JOINT LeftFoot
      {
        OFFSET 40.6238 0 0
        CHANNELS 3 Zrotation Xrotation Yrotation
        JOINT LeftToeBase
        {
          OFFSET 12.7242 0 0
          CHANNELS 3 Zrotation Xrotation Yrotation
          End Site
          {
            OFFSET 0 0 0
          }
        }
      }
    }
  }
  JOINT RightUpLeg
  {
    OFFSET -8.2249 1.95398 -2.59336
    CHANNELS 3 Zrotation Xrotation Yrotation
    JOINT RightLeg
    {
      OFFSET 43.5653 0 0
      CHANNELS 3 Zrotation Xrotation Yrotation
      JOINT RightFoot
      {
        OFFSET 40.6238 0 0
        CHANNELS 3 Zrotation Xrotation Yrotation
        JOINT RightToeBase
        {
          OFFSET 12.7242 0 0
          CHANNELS 3 Zrotation Xrotation Yrotation
          End Site
          {
            OFFSET 0 0 0
          }
        }
      }
    }
  }
  JOINT Spine
  {
    OFFSET 0.165834 0.87714 6.61349
    CHANNELS 3 Zrotation Xrotation Yrotation
    JOINT Spine1
    {
      OFFSET 7.38963 1.71661e-005 0
      CHANNELS 3 Zrotation Xrotation Yrotation
      JOINT Spine2
      {
        OFFSET 11.9445 1.14441e-005 0
        CHANNELS 3 Zrotation Xrotation Yrotation
        JOINT Spine3
        {
          OFFSET 14.7254 4.19617e-005 0
          CHANNELS 3 Zrotation Xrotation Yrotation
          JOINT Spine4
          {
            OFFSET 10.9679 0 0
            CHANNELS 3 Zrotation Xrotation Yrotation
            JOINT RightShoulder
            {
              OFFSET 2.46616 -1.6653 3.69651
              CHANNELS 3 Zrotation Xrotation Yrotation
              JOINT RightArm
              {
                OFFSET 13.0012 0 0
                CHANNELS 3 Zrotation Xrotation Yrotation
                JOINT RightForeArm
                {
                  OFFSET 28.7848 1.62311e-005 0
                  CHANNELS 3 Zrotation Xrotation Yrotation
                  JOINT RightHand
                  {
                    OFFSET 26.5688 1.62095e-005 0
                    CHANNELS 3 Zrotation Xrotation Yrotation
                    End Site
                    {
                      OFFSET 0 0 0
                    }
                  }
                }
              }
            }
            JOINT LeftShoulder
            {
              OFFSET 2.38034 -1.29275 -3.7523
              CHANNELS 3 Zrotation Xrotation Yrotation
              JOINT LeftArm
              {
                OFFSET 16.3182 6.07031e-005 0
                CHANNELS 3 Zrotation Xrotation Yrotation
                JOINT LeftForeArm
                {
                  OFFSET 27.0901 0 0
                  CHANNELS 3 Zrotation Xrotation Yrotation
                  JOINT LeftHand
                  {
                    OFFSET 24.5451 1.51738e-005 0
                    CHANNELS 3 Zrotation Xrotation Yrotation
                    End Site
                    {
                      OFFSET 0 0 0
                    }
                  }
                }
              }
            }
            JOINT Neck
            {
              OFFSET 5.0226 -0.0266342 0
              CHANNELS 3 Zrotation Xrotation Yrotation
              JOINT Head
              {
                OFFSET 6.69364 2.86102e-005 0
                CHANNELS 3 Zrotation Xrotation Yrotation
                End Site
                {
                  OFFSET 0 0 0
                }
              }
            }
          }
        }
      }
    }
  }
}
MOTION
Frames:	14
Frame Time:	0.0416667
-48.2706 104.867 32.6163 87.1012 27.8707 89.5782 -172.005 39.2918 89.9811 -45.7209 0.428403 -2.41714 73.0239 7.27919 1.47237 6.95981 -13.6625 5.59342 173.069 -5.78074 87.9239 -22.021 -27.4906 -3.66963 56.6204 3.42132 0.0902454 20.4755 2.60514 3.63052 1.66011 7.83534 -89.4232 11.1879 3.57196 0.797696 -0.478333 3.6036 0.639516 -23.0436 3.16695 1.83525 -3.03096 3.16696 1.83525 94.6745 -13.6328 -102.775 12.4281 9.11016 -6.24207 -23.0098 -8.67621 -48.0896 -7.82293 -0.0447363 -4.78026 -82.8477 -30.447 87.1967 8.04244 -3.38776 1.87184 12.9776 -2.68496 -19.5222 9.25892 0.689038 3.25164 -18.0107 2.26128 -3.61172 -10.6443 2.28778 -0.253721 
-36.1371 108.721 21.3584 85.8692 21.7489 92.6998 -174.203 28.8492 94.3476 -14.6546 -4.18488 -1.80411 73.9042 9.82346 -1.56603 21.9527 -7.77141 9.79852 168.363 -9.67524 82.1216 -29.637 -18.353 -2.07674 57.9359 3.39292 0.771455 19.9408 2.9745 3.2135 2.30128 7.62855 -89.7007 11.6276 4.71793 0.0979553 -0.03466 4.71767 -0.110262 -22.6339 4.46988 1.51421 -2.62124 4.46986 1.5142 95.4006 -10.6137 -102.113 10.3967 3.81598 -1.15523 -26.5161 -4.96599 -61.8211 -8.56473 -0.122267 -3.72567 -80.9198 -31.1082 90.9993 7.75765 3.08148 19.5554 11.95 -3.99961 -22.3839 3.20818 0.192972 1.25898 -26.7846 2.13618 1.23225 -5.62951 2.35685 -2.05408 
-23.7132 108.112 9.44234 90.7048 18.3653 94.4755 -174.68 20.4868 97.2573 -7.18391 -5.89035 0.465438 77.1358 10.3578 -3.53197 25.6019 -8.23748 14.7676 162.205 -19.5306 74.1573 -37.9551 -25.2135 -5.09148 58.1646 2.97657 1.40676 22.5871 1.54431 4.17697 2.6497 7.70598 -90.4272 11.503 5.07208 -1.3683 -0.158959 5.00696 -1.59071 -22.7741 5.24817 0.223517 -2.76145 5.2482 0.22352 95.9901 -10.1932 -100.579 10.4302 -0.815811 5.08618 -28.4149 -0.518371 -72.2016 -7.75079 -0.149151 -3.10618 -78.233 -28.2243 96.1788 1.21051 1.09419 33.0795 11.8492 -4.54155 -22.2468 0.270155 0.0587504 2.50069 -35.4478 2.15217 2.59127 -2.57468 2.66925 -0.825493 
-11.9629 102.394 -1.58826 92.2078 17.5181 96.418 -170.281 15.2934 98.1574 -8.55264 -3.14386 -1.69071 71.0938 9.34547 -2.8348 20.6369 -8.65164 10.0385 158.89 -25.0514 67.7953 -44.3253 -22.1686 -8.46338 64.4707 -1.42709 -0.600987 24.9885 0.737804 3.4719 2.71217 7.40376 -90.8633 12.1235 4.98353 -2.27248 0.459697 4.8787 -2.48996 -22.1499 5.4355 -0.665796 -2.13729 5.43547 -0.665797 96.0664 -12.2728 -99.5098 14.6082 -3.43747 15.5143 -26.4665 2.90654 -77.65 -7.65258 -0.275478 -1.05691 -76.5202 -26.6592 99.6665 -1.46987 -2.51677 39.7171 12.9828 -2.84682 -22.3914 2.61493 0.335645 5.39211 -36.9839 2.23338 1.10949 -3.00925 2.53092 0.346352 
-2.48534 96.5143 -11.1904 91.6379 21.5429 92.2226 -168.012 25.6736 91.665 -39.2632 7.88509 -5.28048 73.6036 7.72883 1.40659 10.4282 -11.8276 5.84313 162.943 -22.0405 68.5297 -60.1051 -10.8415 -11.1335 68.087 -4.27655 -2.94991 23.073 1.06526 5.07075 2.05384 7.5336 -90.1867 11.8439 3.99764 -0.77047 0.179085 3.95991 -0.945928 -22.4065 4.0439 0.468518 -2.39384 4.04392 0.468524 96.2838 -14.7054 -98.1013 28.6254 -5.3064 21.4454 -33.2465 0.27036 -74.2349 -5.22768 -0.20419 -0.725529 -78.6532 -36.0818 95.5498 -4.90059 -4.37809 32.5106 12.0598 -6.49589 -15.6892 2.82475 0.30774 4.32554 -28.7363 2.63531 1.68646 -5.17634 2.90854 -0.316805 
4.41028 95.0728 -17.8955 93.1771 25.1915 83.2695 -168.124 16.2004 83.8243 -40.3077 7.12334 -6.79993 82.0955 13.2371 -0.92711 13.6349 -11.8075 8.61511 177.553 -3.99902 75.6968 -86.6108 -8.40496 -10.3785 69.6459 -5.30563 -4.99844 19.622 1.97141 6.61678 1.04249 7.97222 -88.9772 10.8962 2.54796 1.78183 -0.773352 2.62392 1.66792 -23.3112 1.8949 2.46518 -3.2985 1.89489 2.46518 95.3637 -21.3931 -98.163 44.1252 -10.3402 17.6362 -30.1249 -8.94256 -56.801 -6.65181 -0.258121 -0.59244 -81.8221 -47.7236 90.867 -8.23111 3.27036 6.39369 9.69964 -11.402 -11.1568 2.34633 0.190741 2.48556 -26.4859 4.59633 1.3114 -8.35698 4.83128 0.0729634 
10.7732 97.3104 -23.2068 93.7832 28.5431 84.746 -170.898 6.20418 84.6971 -31.2121 7.54512 -5.0782 82.2402 13.66 -1.44538 14.3324 -12.2827 10.04 -176.517 13.3612 85.999 -85.56 -5.35676 -7.71765 70.8098 -5.44934 -4.29691 22.0719 0.990687 6.64207 0.209183 7.98462 -89.1623 10.8978 0.803796 1.58988 -0.773972 0.872995 1.55297 -23.301 0.288928 1.75789 -3.28838 0.288939 1.75789 94.5695 -23.1378 -99.4941 54.9812 -17.5611 16.7242 -24.4104 -15.307 -43.0962 -6.38241 -0.155187 -2.63906 -84.9307 -52.7843 86.6977 -5.41293 5.49935 -16.967 14.1527 1.71212 -22.705 3.15175 0.218225 1.98811 -27.8754 6.09725 2.54222 -8.09136 6.4878 0.921788 
17.7889 99.8813 -28.7355 95.1654 35.0915 87.1745 -173.634 -2.99272 86.7376 -23.3629 10.6896 -1.44201 76.1697 10.0177 0.216775 20.1697 -9.52762 11.1506 -178.824 22.4642 93.6945 -57.2112 0.546427 -4.72011 71.4134 -5.52173 -3.37826 20.1212 1.88578 6.26433 -0.638175 8.29747 -89.6655 10.2825 -1.1185 0.760556 -1.38819 -1.08397 0.809043 -23.9266 -1.29537 0.389202 -3.91395 -1.29538 0.389196 94.056 -24.7656 -100.133 58.6798 -17.6233 18.898 -20.611 -15.6633 -37.9061 -6.81321 -0.100099 -3.74858 -86.2245 -46.3395 83.8189 -2.11452 11.3735 -41.6437 12.6918 -0.226101 -26.7324 4.31491 0.118897 -0.786631 -25.6811 6.98763 0.62004 -7.38418 7.09543 3.43669 
25.8294 100.048 -35.3446 95.6954 41.9549 89.4815 -172.729 -8.73428 91.0301 -23.0551 17.4507 0.921624 74.2845 7.86873 0.7276 18.257 -9.85104 9.77027 179.9 20.9585 95.2996 -18.6639 -2.88557 -0.816138 65.9624 -4.49792 -0.788202 23.49 1.15129 4.15322 -1.27545 8.45534 -90.1531 9.96207 -2.61152 -0.0891124 -1.70626 -2.61291 0.02598 -24.2606 -2.46393 -0.87034 -4.24793 -2.46391 -0.870339 93.9798 -24.44 -100.403 61.1061 -16.3882 21.4504 -16.8662 -13.6905 -33.8597 -6.03806 -0.0508707 -4.63874 -86.7299 -34.7173 80.6739 -7.69811 6.98624 -62.3877 14.5362 2.24772 -26.5915 1.56842 -0.173602 -6.37751 -24.543 6.91651 -3.02541 -7.10028 6.6881 5.2605 
34.7899 97.2358 -42.4866 97.4317 47.1445 88.1285 -168.553 -16.7465 96.8334 -21.9417 24.7229 0.639234 76.4601 10.3986 1.63325 24.7034 -7.16813 11.6212 179.071 21.1002 94.8243 -5.89119 -4.16417 0.399537 64.909 -4.28051 -0.79166 28.1769 0.0403573 1.00755 -1.8382 8.55534 -90.2549 9.76183 -3.77957 -0.20645 -1.90362 -3.785 -0.0396715 -24.4787 -3.54256 -1.33424 -4.46601 -3.54255 -1.33424 94.0678 -24.8399 -100.089 61.1303 -17.4964 22.7266 -16.5695 -14.5554 -33.1773 -4.40581 0.0198164 -6.46786 -86.4328 -26.4479 79.2753 -15.0663 -0.318556 -76.1685 19.0105 5.83964 -30.6867 2.76656 -0.242407 -7.70567 -21.4438 6.19022 -6.45775 -8.3082 5.6837 7.7795 
44.2194 94.2375 -50.6681 100.371 51.5307 85.2992 -165.192 -23.5458 101.795 -23.4575 30.372 2.69045 72.0629 8.58499 3.34484 39.6621 -0.279067 14.8515 176.499 26.8866 93.3772 -23.3116 -3.61445 1.71599 60.2889 2.22257 -1.10432 22.3398 1.40651 4.83962 -2.21692 8.53805 -90.4491 9.79182 -4.62228 -0.522859 -1.87096 -4.64082 -0.318477 -24.4634 -4.25112 -1.8903 -4.45074 -4.25113 -1.8903 94.3992 -26.8377 -98.7832 56.2273 -13.8922 20.675 -15.9711 -17.0686 -29.1483 -6.13558 0.0112344 -5.8959 -87.1069 -30.2397 78.9072 -20.5677 -2.49668 -81.4325 23.5811 7.05987 -43.4695 4.49134 -0.151747 -5.52306 -16.8807 4.95106 -3.08155 -10.1967 4.66299 5.5482 
53.2847 92.9332 -58.6464 100.007 50.5505 87.7174 -165.629 -20.1483 103.532 -38.3016 27.3865 4.84747 62.7728 1.79699 3.17969 25.5382 -3.26665 4.29476 172.709 30.2296 96.0526 -41.932 -7.63427 4.22975 65.2993 -1.16457 -2.74669 17.6788 3.70841 3.9307 -1.68634 8.37329 -91.0696 10.0965 -3.84754 -1.80176 -1.56975 -3.92308 -1.6305 -24.1276 -3.12827 -2.87528 -4.11495 -3.12826 -2.87528 93.1249 -26.623 -101.552 51.6859 -6.50145 14.0786 -9.92173 -9.55859 -14.8011 -9.5442 -0.17905 -3.14849 -88.7792 -35.9538 77.3632 -22.374 1.79569 -74.2664 24.3668 2.17061 -57.8703 5.52929 -0.0366178 -3.58962 -13.6259 3.1515 1.58925 -9.96255 2.97582 3.00816 
60.3743 94.3867 -64.3732 103.351 49.0929 87.7846 -169.001 -6.42776 104.062 -59.5961 21.3373 5.32926 54.0505 -4.54575 0.864311 6.84666 -10.0038 0.343671 172 21.4514 98.7423 -42.7206 -8.66613 5.20577 69.9521 -5.23037 -3.55719 21.0039 2.39888 3.572 -1.05637 8.61794 -91.5028 9.59647 -2.78412 -2.76452 -2.07416 -2.90305 -2.63934 -24.5979 -1.82514 -3.47289 -4.58527 -1.82515 -3.4729 91.7204 -27.4766 -104.209 46.9074 -4.91524 3.04514 -9.33018 -4.22898 -9.37568 -12.0579 -0.229828 -3.0762 -91.3078 -44.7254 75.4666 -13.1979 13.2779 -60.1052 28.4769 1.1132 -61.2368 1.17435 -0.027375 -2.94601 -13.2704 1.70196 2.51452 -9.22259 1.56984 1.68312 
66.1384 97.4568 -69.5584 103.984 49.7764 85.2045 -173.409 7.41195 98.0426 -68.0767 14.7456 4.46501 64.4016 2.03198 4.31305 7.25033 -10.4326 1.28277 172.566 12.3189 97.0602 -36.076 -9.29006 4.66755 70.9125 -6.46831 -5.07384 22.6544 1.8078 3.20724 -0.69696 8.60735 -91.1824 9.63599 -1.92348 -2.19378 -2.03525 -2.01814 -2.10703 -24.5606 -1.17553 -2.67018 -4.54793 -1.1755 -2.67017 91.3338 -28.1065 -104.777 42.3584 -4.40535 -5.9716 -13.8807 -8.77757 -23.867 -14.182 -0.43006 -1.73414 -92.1879 -49.9604 75.4537 -7.68766 26.7274 -43.9814 26.342 4.11656 -50.7086 -5.31436 -0.103628 -4.28305 -14.1815 0.133968 -1.60655 -7.88537 0.0639735 2.5257 
